<?xml version="1.0" encoding="iso-8859-1"?>
<!-- Generator: Adobe Illustrator 22.1.0, SVG Export Plug-In . SVG Version: 6.00 Build 0)  -->
<svg version="1.1" id="Layer_1" xmlns="http://www.w3.org/2000/svg" xmlns:xlink="http://www.w3.org/1999/xlink" x="0px" y="0px"
	 viewBox="0 0 48 48" style="enable-background:new 0 0 48 48;" xml:space="preserve">
<path style="fill:#424242;" d="M42,37c0,2.762-2.238,5-5,5H11c-2.761,0-5-2.238-5-5V11c0-2.762,2.239-5,5-5h26c2.762,0,5,2.238,5,5
	V37z"/>
<path style="fill:#B71C1C;" d="M31,12h-5v23.5c2.5,0,4.986,0.512,5,0.5S31,12,31,12z"/>
<path style="fill:#B71C1C;" d="M17,12h5v23.5c-2.5,0-4.986,0.512-5,0.5S17,12,17,12z"/>
<path style="fill:#E53935;" d="M22,12h-5l9,23.5c2.5,0,4.986,0.512,5,0.5S22,12,22,12z"/>
</svg>